<!-- sample rectangle -->
<svg width="200" height="200" xmlns="http://www.w3.org/2000/svg">
  <line x1="10" y1="10" x2="80" y2="10" style="stroke: black; stroke-width: 1;" />
  <line x1="10" y1="10" x2="10" y2="60" style="stroke: black; stroke-width: 1;" />
  <line x1="20" y1="40" x2="20" y2="60" style="stroke: black; stroke-width: 1;" />
  <line x1="30" y1="40" x2="30" y2="60" style="stroke: black; stroke-width: 1;" />
  <line x1="40" y1="10" x2="40" y2="60" style="stroke: black; stroke-width: 1;" />
  <line x1="50" y1="40" x2="50" y2="60" style="stroke: black; stroke-width: 1;" />
  <line x1="60" y1="40" x2="60" y2="60" style="stroke: black; stroke-width: 1;" />
  <line x1="70" y1="40" x2="70" y2="60" style="stroke: black; stroke-width: 1;" />
  <line x1="80" y1="10" x2="80" y2="60" style="stroke: black; stroke-width: 1;" />
  <line x1="10" y1="60" x2="80" y2="60" style="stroke: black; stroke-width: 1;" />
  
  <rect width="6.5" height="30" x="15.5" y="10" fill="black"/>
  <rect width="6.5" height="30" x="28" y="10" fill="black"/>
  <rect width="6.5" height="30" x="45" y="10" fill="black"/>
  <rect width="6.5" height="30" x="56.75" y="10" fill="black"/>
  <rect width="6.5" height="30" x="68.5" y="10" fill="black"/>
</svg>