<?xml version="1.0" standalone="no"?>
<!DOCTYPE svg PUBLIC "-//W3C//DTD SVG 20010904//EN"
 "http://www.w3.org/TR/2001/REC-SVG-20010904/DTD/svg10.dtd">
<svg version="1.0" xmlns="http://www.w3.org/2000/svg"
 width="450.000000pt" height="384.000000pt" viewBox="0 0 450.000000 384.000000"
 preserveAspectRatio="xMidYMid meet">
<metadata>
Created by potrace 1.10, written by Peter Selinger 2001-2011
</metadata>
<g transform="translate(0.000000,384.000000) scale(0.050000,-0.050000)"
fill="#000000" stroke="none">
<path d="M1839 7658 c-839 -109 -1543 -728 -1757 -1546 -446 -1704 1034 -3860
4013 -5846 l405 -270 413 275 c3373 2248 4835 4782 3728 6463 -977 1482 -3191
1155 -4054 -599 -41 -85 -81 -155 -87 -155 -6 0 -46 70 -87 155 -514 1045
-1546 1656 -2574 1523z m686 -146 c805 -154 1491 -759 1879 -1655 104 -239 88
-239 192 0 721 1666 2525 2225 3661 1134 1580 -1516 20 -4440 -3592 -6730
l-165 -105 -165 105 c-2827 1792 -4454 3996 -4166 5641 194 1104 1245 1822
2356 1610z"/>
<path d="M5720 5880 c0 -58 3 -60 95 -60 l95 0 -154 -154 c-146 -146 -156
-152 -206 -130 -351 160 -607 -368 -272 -563 250 -147 567 145 435 400 l-31
60 159 158 159 158 0 -104 c0 -99 3 -105 50 -105 50 0 50 0 50 200 l0 200
-190 0 -190 0 0 -60z m-158 -498 c109 -110 57 -296 -92 -334 -81 -20 -186 38
-221 122 -84 201 159 365 313 212z"/>
<path d="M3754 5728 c-24 -25 -15 -82 17 -108 46 -39 134 6 125 65 -6 45 -108
76 -142 43z"/>
<path d="M3180 5410 l0 -310 100 0 100 0 0 119 0 120 102 13 c143 19 203 75
203 188 0 145 -59 180 -306 180 l-199 0 0 -310z m289 219 c63 -63 21 -209 -60
-209 -22 0 -29 29 -29 120 0 128 25 152 89 89z"/>
<path d="M4774 5668 c-8 -8 -14 -31 -14 -51 0 -28 -15 -37 -65 -37 -155 0
-255 -136 -177 -241 40 -54 40 -55 1 -90 -47 -42 -50 -95 -8 -130 29 -24 29
-28 0 -43 -150 -85 208 -191 369 -110 72 36 109 120 78 179 -36 67 -55 74
-203 75 -76 0 -135 9 -135 20 0 11 43 20 96 20 202 0 285 166 141 281 -38 30
-37 31 17 30 94 -2 81 97 -15 105 -39 3 -77 -1 -85 -8z m-38 -259 c-9 -112
-56 -115 -56 -4 0 49 6 94 14 102 27 27 49 -23 42 -98z m79 -374 c-5 -15 -45
-25 -105 -25 -60 0 -100 10 -105 25 -6 18 23 25 105 25 82 0 111 -7 105 -25z"/>
<path d="M3765 5566 c-44 -9 -45 -16 -45 -237 l0 -229 90 0 90 0 0 240 c0 265
7 253 -135 226z"/>
<path d="M4005 5567 c-18 -7 -25 -75 -25 -239 l0 -228 90 0 90 0 0 139 c0 134
28 241 63 241 9 0 17 -85 17 -190 l0 -190 90 0 90 0 0 219 c0 197 -4 222 -39
240 -55 30 -132 26 -161 -9 -14 -16 -33 -30 -42 -30 -10 0 -18 14 -18 30 0 30
-97 40 -155 17z"/>
<path d="M5880 4750 c0 -46 7 -50 90 -50 118 0 116 -5 -59 -179 -141 -140
-152 -147 -201 -125 -353 161 -612 -332 -290 -551 241 -164 565 113 451 385
l-32 78 145 146 c170 172 176 173 176 56 0 -83 4 -90 50 -90 50 0 50 1 50 190
l0 190 -190 0 c-189 0 -190 0 -190 -50z m-232 -458 c208 -87 156 -372 -68
-372 -221 0 -276 283 -72 371 77 34 62 34 140 1z"/>
<path d="M3060 4312 l0 -312 100 0 100 0 0 117 0 118 100 13 c140 19 205 79
205 190 0 143 -45 171 -296 179 l-209 7 0 -312z m296 204 c54 -54 13 -196 -57
-196 -34 0 -39 14 -39 110 0 114 36 146 96 86z"/>
<path d="M4905 4567 c-14 -6 -25 -28 -25 -49 0 -27 -14 -38 -47 -38 -187 0
-301 -195 -165 -284 14 -10 6 -26 -23 -47 -52 -36 -61 -124 -14 -142 26 -10
26 -15 -3 -36 -102 -74 17 -140 232 -128 312 18 318 277 7 277 -81 0 -125 7
-117 20 7 11 52 20 100 20 172 0 258 153 143 253 -66 56 -66 64 -3 52 34 -7
54 1 62 23 25 65 -63 113 -147 79z m-45 -258 c0 -66 -8 -89 -30 -89 -31 0 -45
158 -17 186 27 28 47 -13 47 -97z m65 -379 c-2 -11 -50 -23 -105 -26 -93 -6
-121 9 -86 44 22 21 197 5 191 -18z"/>
<path d="M3704 4451 c-180 -81 -155 -396 36 -453 208 -63 359 101 299 325 -35
129 -196 191 -335 128z m144 -63 c41 -106 -2 -398 -48 -328 -38 59 -22 360 20
360 9 0 21 -14 28 -32z"/>
<path d="M4165 4466 l-65 -9 0 -228 0 -229 90 0 90 0 0 148 c0 117 8 157 39
195 l40 47 0 -195 1 -195 99 0 99 0 -11 215 c-13 260 -73 331 -198 236 -50
-38 -69 -38 -69 -1 0 17 -11 29 -25 27 -14 -2 -54 -7 -90 -11z"/>
<path d="M6420 3681 c0 -60 2 -61 105 -62 l105 -1 -158 -150 c-112 -107 -167
-146 -190 -136 -358 152 -644 -326 -324 -543 257 -176 565 86 459 390 -22 64
-20 67 125 214 l148 148 10 -95 c9 -86 15 -96 60 -96 50 0 50 1 50 190 l0 190
-195 6 -195 5 0 -60z m-155 -492 c151 -151 5 -395 -197 -328 -88 29 -128 88
-128 192 0 165 209 252 325 136z"/>
<path d="M4421 3511 c-45 -54 -17 -101 59 -101 59 0 71 8 77 48 10 75 -86 113
-136 53z"/>
<path d="M2520 3199 l0 -321 95 6 95 6 6 145 6 145 89 0 c76 0 89 6 89 40 0
34 -13 40 -90 40 l-90 0 0 90 0 90 110 0 c97 0 110 5 110 40 0 37 -13 40 -210
40 l-210 0 0 -321z"/>
<path d="M4140 3428 c0 -80 -5 -90 -35 -77 -135 59 -225 -34 -225 -233 0 -192
135 -315 236 -214 19 19 24 18 24 -1 0 -17 27 -23 85 -19 l85 6 6 315 5 315
-90 0 -91 0 0 -92z m-12 -180 c37 -96 2 -309 -46 -279 -24 14 -31 275 -9 298
22 22 42 15 55 -19z"/>
<path d="M5445 3455 c-11 -14 -23 -37 -28 -53 -5 -15 -39 -30 -75 -32 -145
-12 -238 -172 -151 -259 32 -31 31 -36 -8 -73 -50 -46 -56 -114 -12 -131 28
-11 28 -15 -1 -47 -103 -114 206 -185 392 -89 167 87 68 249 -152 249 -80 0
-128 8 -120 19 6 11 37 15 67 9 187 -38 310 161 169 271 l-51 41 53 0 c61 0
88 47 52 90 -30 36 -108 39 -135 5z m-49 -250 c-3 -52 -15 -95 -26 -95 -11 0
-23 43 -26 95 -5 77 0 95 26 95 26 0 31 -18 26 -95z m75 -366 c24 -39 -167
-70 -203 -34 -28 29 21 55 102 55 48 0 94 -10 101 -21z"/>
<path d="M3086 3351 c-128 -56 -174 -293 -78 -405 57 -66 264 -83 320 -26 53
54 61 133 13 145 -33 9 -41 2 -41 -34 0 -97 -123 -118 -148 -25 -23 88 -17 94
108 94 135 0 146 18 93 146 -47 113 -153 155 -267 105z m130 -118 c5 -42 -2
-53 -35 -53 -42 0 -51 30 -29 89 19 48 57 26 64 -36z"/>
<path d="M3546 3351 c-265 -116 -123 -516 164 -462 102 19 172 155 90 177 -31
8 -40 0 -40 -35 0 -97 -123 -118 -148 -25 -23 88 -17 94 108 94 135 0 146 18
93 146 -47 113 -153 155 -267 105z m130 -118 c5 -42 -2 -53 -35 -53 -42 0 -51
30 -29 89 19 48 57 26 64 -36z"/>
<path d="M4724 3364 l-85 -6 5 -234 6 -234 90 0 90 0 6 169 c3 93 16 181 28
196 40 48 57 -15 52 -195 l-5 -170 90 0 89 0 6 182 c8 270 -50 354 -194 282
-40 -20 -61 -22 -74 -6 -10 12 -57 19 -104 16z"/>
<path d="M4389 3334 c-6 -15 -8 -121 -5 -235 l6 -209 90 0 90 0 6 235 5 235
-91 0 c-57 0 -95 -10 -101 -26z"/>
<path d="M6540 2620 c0 -58 3 -60 95 -60 l95 0 -151 -151 -151 -151 -90 24
c-402 108 -582 -472 -187 -602 246 -81 496 203 378 429 l-31 59 161 161 161
161 0 -105 c0 -99 3 -105 50 -105 50 0 50 0 50 200 l0 200 -190 0 -190 0 0
-60z m-173 -481 c145 -114 51 -359 -138 -359 -74 0 -189 118 -188 193 2 169
196 268 326 166z"/>
<path d="M4572 2414 c-57 -41 -33 -103 42 -110 66 -7 118 45 90 89 -24 37 -95
48 -132 21z"/>
<path d="M2404 2106 c5 -279 10 -316 40 -322 30 -6 35 17 40 190 l6 196 51
-190 c50 -185 53 -190 110 -190 57 0 59 4 102 180 l43 180 7 -180 7 -180 95
-6 95 -6 0 321 0 321 -99 0 -99 0 -23 -85 c-78 -299 -73 -297 -135 -65 l-38
140 -103 6 -104 6 5 -316z"/>
<path d="M4020 2100 l0 -320 90 0 90 0 0 151 c0 148 22 229 61 229 11 0 19
-81 19 -190 l0 -190 90 0 90 0 0 201 c0 111 -9 219 -21 240 -26 50 -150 53
-202 6 -35 -32 -37 -28 -37 80 l0 113 -90 0 -90 0 0 -320z"/>
<path d="M3120 2220 c-58 -58 -53 -120 10 -120 40 0 50 10 50 50 0 42 9 50 60
50 99 0 81 -73 -29 -122 -153 -67 -203 -185 -114 -265 42 -38 164 -44 199 -9
19 19 29 19 48 0 26 -26 112 -32 164 -12 41 16 42 68 2 68 -24 0 -30 32 -30
169 0 213 -15 231 -191 231 -102 0 -137 -8 -169 -40z m172 -332 c-20 -52 -52
-29 -52 38 0 94 48 139 56 53 4 -34 2 -75 -4 -91z"/>
<path d="M3624 2203 c-173 -161 -73 -423 161 -423 136 0 261 146 172 202 -41
26 -77 21 -66 -9 21 -52 -27 -133 -78 -133 -79 0 -112 278 -41 349 41 41 88 8
88 -61 0 -27 8 -48 18 -48 46 0 82 27 82 62 0 124 -225 165 -336 61z"/>
<path d="M4540 2020 l0 -240 90 0 90 0 0 240 0 240 -90 0 -90 0 0 -240z"/>
<path d="M4800 2020 l0 -240 90 0 90 0 0 158 c0 176 11 222 52 222 22 0 28
-41 28 -190 l0 -190 90 0 90 0 0 209 c0 260 -91 358 -223 238 -34 -31 -37 -31
-37 0 0 26 -20 33 -90 33 l-90 0 0 -240z"/>
<path d="M5395 2238 c-113 -65 -134 -302 -37 -400 108 -107 333 -68 347 61 3
34 -6 52 -30 57 -23 5 -35 -5 -35 -31 0 -82 -102 -116 -139 -46 -51 95 -30
121 99 121 131 0 133 2 99 124 -33 120 -192 180 -304 114z m153 -70 c24 -63
13 -108 -28 -108 -26 0 -40 13 -40 38 0 51 20 102 40 102 9 0 21 -14 28 -32z"/>
</g>
</svg>
